<svg width="33" height="32" viewBox="0 0 33 32" fill="none" xmlns="http://www.w3.org/2000/svg">
<path d="M7.78014 0.0725861C4.21178 0.679834 1.38213 3.41558 0.605849 7.00899C0.499424 7.48477 0.493164 8.12958 0.493164 16.005C0.493164 23.8805 0.499424 24.5253 0.605849 25.0011C0.975206 26.7352 1.78278 28.2188 3.02858 29.4646C4.27438 30.7104 5.75807 31.518 7.49217 31.8874C7.96795 31.9938 8.61276 32.0001 16.4882 32.0001C24.3636 32.0001 25.0085 31.9938 25.4842 31.8874C27.2183 31.518 28.702 30.7104 29.9478 29.4646C31.1936 28.2188 32.0012 26.7352 32.3706 25.0011C32.477 24.5253 32.4832 23.8805 32.4832 16.005C32.4832 8.12958 32.477 7.48477 32.3706 7.00899C32.0012 5.27489 31.1936 3.7912 29.9478 2.5454C28.7271 1.32464 27.331 0.560888 25.5343 0.122667C25.1337 0.0225029 24.3636 0.016243 16.676 0.00372314C10.0464 -0.00879669 8.15576 0.00998306 7.78014 0.0725861ZM24.8457 2.00702C26.3419 2.27621 27.45 2.85841 28.5455 3.9477C29.6348 5.04325 30.217 6.15133 30.4862 7.64754C30.6177 8.39251 30.6177 23.6175 30.4862 24.3625C30.217 25.8587 29.6348 26.9668 28.5455 28.0623C27.45 29.1516 26.3419 29.7338 24.8457 30.003C24.1007 30.1345 8.87569 30.1345 8.13072 30.003C6.63451 29.7338 5.52644 29.1516 4.43089 28.0623C3.3416 26.9668 2.75939 25.8587 2.4902 24.3625C2.35873 23.6175 2.35873 8.39251 2.4902 7.64754C2.75939 6.15133 3.3416 5.04325 4.43089 3.9477C5.50766 2.8772 6.61573 2.28873 8.06811 2.01328C8.74422 1.88807 24.1383 1.88181 24.8457 2.00702Z" fill="#F3AE9F"/>
<path d="M25.2587 4.05423C24.5575 4.19196 23.8188 4.72408 23.4682 5.34385C22.9486 6.27663 23.03 7.50991 23.6623 8.32375C24.1694 8.97482 24.8267 9.31287 25.6718 9.3567C27.0867 9.42556 28.226 8.49904 28.4577 7.09047C28.7644 5.25621 27.1117 3.69113 25.2587 4.05423ZM26.2165 6.08256C26.2979 6.13891 26.4168 6.28915 26.4794 6.41436C26.5733 6.61469 26.5733 6.67103 26.4982 6.89014C26.398 7.17186 26.0788 7.42853 25.8346 7.42853C25.5717 7.42853 25.2712 7.24072 25.1648 7.02161C25.0333 6.74616 25.0396 6.56461 25.1898 6.3142C25.4152 5.94484 25.8597 5.85093 26.2165 6.08256Z" fill="#F3AE9F"/>
<path d="M15.486 7.24065C14.378 7.37837 13.3763 7.68513 12.4248 8.18595C10.0145 9.44427 8.29297 11.7731 7.81093 14.44C7.66068 15.2413 7.66068 16.7688 7.81093 17.5701C8.462 21.1635 11.3292 24.0307 14.9226 24.6818C15.7239 24.8321 17.2514 24.8321 18.0528 24.6818C21.6462 24.0307 24.5134 21.1635 25.1644 17.5701C25.3147 16.7688 25.3147 15.2413 25.1644 14.44C24.6824 11.7731 22.9733 9.45679 20.5506 8.17969C19.8432 7.81033 18.8478 7.47228 18.0841 7.33455C17.3829 7.20934 16.1058 7.16552 15.486 7.24065ZM17.6646 9.2502C18.1216 9.31906 19.0794 9.63208 19.5239 9.85745C20.7822 10.4897 22.003 11.7105 22.6353 12.9688C22.8607 13.407 23.1737 14.3586 23.2551 14.8594C23.3427 15.4041 23.3427 16.606 23.2551 17.1507C23.1737 17.6515 22.8607 18.6031 22.6353 19.0413C22.003 20.2996 20.7822 21.5204 19.5239 22.1527C19.0857 22.378 18.1341 22.691 17.6333 22.7724C17.0887 22.8601 15.8867 22.8601 15.3421 22.7724C14.8412 22.691 13.8897 22.378 13.4514 22.1527C12.1931 21.5204 10.9724 20.2996 10.3401 19.0413C10.1147 18.6031 9.8017 17.6515 9.72032 17.1507C9.63267 16.606 9.63267 15.4041 9.72032 14.8594C9.8017 14.3586 10.1147 13.407 10.3401 12.9688C11.0663 11.5227 12.4122 10.2644 13.8458 9.68216C15.1042 9.16881 16.2686 9.03735 17.6646 9.2502Z" fill="#F3AE9F"/>
</svg>
