<svg width="50" height="50" viewBox="0 0 50 50" fill="none" xmlns="http://www.w3.org/2000/svg">
<rect width="50" height="50" rx="25" fill="#F3AE9F"/>
<path d="M29.4849 15.207L19.7024 18.457C13.1265 20.6561 13.1265 24.242 19.7024 26.4303L22.6057 27.3945L23.5699 30.2978C25.7582 36.8736 29.3549 36.8736 31.5432 30.2978L34.804 20.5261C36.2557 16.1386 33.8724 13.7445 29.4849 15.207ZM29.8315 21.0353L25.7149 25.1736C25.5524 25.3361 25.3465 25.412 25.1407 25.412C24.9349 25.412 24.729 25.3361 24.5665 25.1736C24.2524 24.8595 24.2524 24.3395 24.5665 24.0253L28.6832 19.887C28.9974 19.5728 29.5174 19.5728 29.8315 19.887C30.1457 20.2011 30.1457 20.7211 29.8315 21.0353Z" fill="#050505"/>
</svg>
