<svg width="37" height="32" viewBox="0 0 37 32" fill="none" xmlns="http://www.w3.org/2000/svg">
<path d="M34.2119 0.0968494C33.8555 0.218042 1.66115 12.6295 1.01954 12.9004C0.370805 13.1713 -0.00702985 13.7559 9.9104e-05 14.5045C9.9104e-05 15.0605 0.192581 15.4954 0.570415 15.8019C0.74151 15.9374 2.08175 16.4721 4.80501 17.4915L8.79723 18.9814L10.1232 23.2446C10.8504 25.5971 11.549 27.8427 11.6773 28.2491C11.9268 29.0618 12.1977 29.4396 12.711 29.7034C13.0746 29.8887 13.7732 29.8959 14.1511 29.7176C14.3008 29.6464 15.4913 28.7125 16.8102 27.6431C18.6138 26.1746 19.2483 25.6969 19.3909 25.6969C19.5334 25.6969 20.7026 26.5096 23.6754 28.6697C25.921 30.3022 27.9028 31.7209 28.0739 31.8136C28.4589 32.0346 29.0363 32.0631 29.5211 31.8777C29.9203 31.7209 30.3694 31.2432 30.4906 30.8512C30.7259 30.0456 36.4932 2.01454 36.4932 1.67235C36.4861 0.488941 35.3668 -0.280987 34.2119 0.0968494ZM34.9676 1.62245C34.9961 1.69374 29.1718 29.9173 29.0363 30.345C29.0149 30.4163 28.9508 30.4733 28.8937 30.4733C28.8367 30.4733 26.9761 29.1473 24.7447 27.5291C22.5205 25.9179 20.5244 24.4993 20.3034 24.3923C20.0039 24.2426 19.8043 24.1927 19.4764 24.1927C18.571 24.1856 18.6637 24.1285 15.5412 26.6807C14.4291 27.5932 13.4809 28.3346 13.431 28.3346C13.3811 28.3346 13.3099 28.2491 13.2671 28.135C13.2243 28.0281 12.4972 25.7112 11.6488 22.9879C10.5082 19.3165 10.0662 17.9905 9.94499 17.8693C9.84518 17.7624 8.45504 17.2135 5.86723 16.2511C3.71428 15.4455 1.8465 14.7397 1.72531 14.6827C1.48292 14.5758 1.41876 14.4118 1.5756 14.3405C2.1673 14.0767 34.711 1.5369 34.8036 1.5369C34.8749 1.52977 34.9462 1.57254 34.9676 1.62245Z" fill="#F3AE9F"/>
<path d="M27.3326 6.47026C25.8213 7.35425 12.2335 15.7807 12.0553 15.9518C11.5705 16.4151 11.2568 17.2635 11.3638 17.8481C11.4422 18.2829 13.0462 23.9362 13.1531 24.1429C13.2102 24.2499 13.367 24.421 13.5025 24.5279C13.8304 24.7703 14.3793 24.7988 14.75 24.5849C15.1706 24.3497 15.2847 24.0075 15.5342 22.1397C15.6768 21.0347 15.8051 20.3503 15.9049 20.1293C16.0261 19.8299 16.903 18.9958 22.4279 13.8559C26.7338 9.84938 28.844 7.84614 28.9081 7.68218C29.0364 7.38276 29.0364 7.22593 28.8939 6.87661C28.6657 6.32055 27.9315 6.12807 27.3326 6.47026ZM23.6969 10.5765C23.6184 10.6478 21.6936 12.4301 19.4195 14.5402C17.1453 16.6504 15.1492 18.5396 14.9853 18.7392C14.8142 18.9388 14.6003 19.2739 14.5005 19.4806C14.3365 19.8299 14.1084 20.8494 14.1084 21.27C14.1084 21.3698 14.0799 21.4981 14.0514 21.548C13.9872 21.6478 12.8965 17.8695 12.8965 17.5486C12.8965 17.4417 12.982 17.2635 13.0961 17.1423C13.2387 16.9783 23.6256 10.491 23.8038 10.4482C23.8181 10.4411 23.7753 10.4981 23.6969 10.5765Z" fill="#F3AE9F"/>
<path d="M29.7918 15.9159C29.5708 16.144 29.3925 16.7928 29.471 17.135C29.5708 17.5912 30.134 17.8336 30.5688 17.6055C30.8682 17.4558 31.0251 17.0922 31.0322 16.5147C31.0393 16.1013 31.0179 16.0442 30.8397 15.8874C30.5474 15.6308 30.0627 15.645 29.7918 15.9159Z" fill="#F3AE9F"/>
<path d="M29.0577 19.2811C28.9579 19.3951 28.8581 19.552 28.8367 19.6161C28.8224 19.6874 28.4303 21.4697 27.9741 23.587C27.3895 26.296 27.1543 27.4936 27.1899 27.6647C27.2327 27.9142 27.4893 28.1638 27.7673 28.235C28.024 28.2992 28.3947 28.1424 28.5301 27.9142C28.6941 27.6291 30.3908 19.8229 30.3338 19.5948C30.2482 19.2526 29.9773 19.0672 29.5852 19.0672C29.2858 19.0672 29.2074 19.0957 29.0577 19.2811Z" fill="#F3AE9F"/>
</svg>
