<svg width="32" height="32" viewBox="0 0 32 32" fill="none" xmlns="http://www.w3.org/2000/svg">
<path d="M0.484064 0.0749989C0.509064 0.112499 3.25281 4.1125 6.58406 8.95625C9.90906 13.8 12.6341 17.775 12.6341 17.7875C12.6341 17.8 1.39031 30.8937 0.521564 31.8875C0.434064 31.9937 0.502814 32 1.85906 32H3.29656L8.60906 25.8187L13.9278 19.6438L18.1716 25.8187L22.4153 32H27.1216C30.8716 32 31.8216 31.9812 31.7778 31.9187C31.7528 31.8813 28.9278 27.7562 25.4966 22.7625C22.0591 17.7688 19.2403 13.65 19.2216 13.6062C19.1966 13.5312 20.7153 11.75 28.7403 2.41875L30.8278 0H29.3903H27.9528L22.9341 5.8375C20.1716 9.04375 17.8966 11.6625 17.8778 11.65C17.8591 11.6437 16.0466 9.0125 13.8466 5.81875L9.85281 0H5.14656C1.51531 0 0.452814 0.0187492 0.484064 0.0749989ZM17.9778 15.7312C23.2028 23.2125 27.5841 29.4813 27.7153 29.6688L27.9528 30H25.8716L23.7903 29.9937L14.2903 16.4C9.06531 8.91875 4.68406 2.65 4.55281 2.4625L4.30906 2.125H6.39656L8.47781 2.13125L17.9778 15.7312Z" fill="#F3AE9F"/>
</svg>
